<svg xmlns="http://www.w3.org/2000/svg" viewBox="0 0 24 24" id="Deezer"><g fill="#61d8f3" fill-rule="evenodd" class="colorf3c461 svgShape"><path d="M9.5,12c0,-0.2761 0.22386,-0.5 0.5,-0.5h4c0.2761,0 0.5,0.2239 0.5,0.5v3.5h-5v-3.5Zm0,4.5v3.5c0,0.2761 0.22386,0.5 0.5,0.5h4c0.2761,0 0.5,-0.2239 0.5,-0.5v-3.5h-5Z" fill="#000000" class="color000000 svgShape"></path><path fill="#15b5d9" d="M17.5,4c0,-0.27614 0.2239,-0.5 0.5,-0.5h4c0.2761,0 0.5,0.22386 0.5,0.5v16c0,0.2761 -0.2239,0.5 -0.5,0.5h-4c-0.2761,0 -0.5,-0.2239 -0.5,-0.5v-16Zm1,0.5v15h3v-15h-3Z" class="color110638 svgShape"></path><path fill="#15b5d9" d="M17.5 8c0-.27614.2239-.5.5-.5h4c.2761 0 .5.22386.5.5 0 .27614-.2239.5-.5.5h-4c-.2761 0-.5-.22386-.5-.5zM17.5 12c0-.2761.2239-.5.5-.5h4c.2761 0 .5.2239.5.5 0 .2761-.2239.5-.5.5h-4c-.2761 0-.5-.2239-.5-.5zM17.5 16c0-.2761.2239-.5.5-.5h4c.2761 0 .5.2239.5.5 0 .2761-.2239.5-.5.5h-4c-.2761 0-.5-.2239-.5-.5zM1.5 8c0-.27614.22386-.5.5-.5h4c.27614 0 .5.22386.5.5v12c0 .2761-.22386.5-.5.5h-4c-.27614 0-.5-.2239-.5-.5v-12zm1 .5v11h3v-11h-3z" class="color110638 svgShape"></path><path fill="#15b5d9" d="M1.5 12c0-.2761.22386-.5.5-.5h4c.27614 0 .5.2239.5.5 0 .2761-.22386.5-.5.5h-4c-.27614 0-.5-.2239-.5-.5zM1.5 16c0-.2761.22386-.5.5-.5h4c.27614 0 .5.2239.5.5 0 .2761-.22386.5-.5.5h-4c-.27614 0-.5-.2239-.5-.5z" class="color110638 svgShape"></path></g></svg>